<svg width="197" height="43" viewBox="0 0 197 43" fill="none" xmlns="http://www.w3.org/2000/svg">
<path d="M105.608 12.152V15.44H101.144V29H97.04V15.44H92.576V12.152H105.608ZM111.292 17.84C111.772 17.104 112.372 16.528 113.092 16.112C113.812 15.68 114.612 15.464 115.492 15.464V19.808H114.364C113.34 19.808 112.572 20.032 112.06 20.48C111.548 20.912 111.292 21.68 111.292 22.784V29H107.188V15.608H111.292V17.84ZM123.069 29.192C121.757 29.192 120.573 28.912 119.517 28.352C118.477 27.792 117.653 26.992 117.045 25.952C116.453 24.912 116.157 23.696 116.157 22.304C116.157 20.928 116.461 19.72 117.069 18.68C117.677 17.624 118.509 16.816 119.565 16.256C120.621 15.696 121.805 15.416 123.117 15.416C124.429 15.416 125.613 15.696 126.669 16.256C127.725 16.816 128.557 17.624 129.165 18.68C129.773 19.72 130.077 20.928 130.077 22.304C130.077 23.68 129.765 24.896 129.141 25.952C128.533 26.992 127.693 27.792 126.621 28.352C125.565 28.912 124.381 29.192 123.069 29.192ZM123.069 25.64C123.853 25.64 124.517 25.352 125.061 24.776C125.621 24.2 125.901 23.376 125.901 22.304C125.901 21.232 125.629 20.408 125.085 19.832C124.557 19.256 123.901 18.968 123.117 18.968C122.317 18.968 121.653 19.256 121.125 19.832C120.597 20.392 120.333 21.216 120.333 22.304C120.333 23.376 120.589 24.2 121.101 24.776C121.629 25.352 122.285 25.64 123.069 25.64ZM135.879 17.504C136.279 16.88 136.831 16.376 137.535 15.992C138.239 15.608 139.063 15.416 140.007 15.416C141.111 15.416 142.111 15.696 143.007 16.256C143.903 16.816 144.607 17.616 145.119 18.656C145.647 19.696 145.911 20.904 145.911 22.28C145.911 23.656 145.647 24.872 145.119 25.928C144.607 26.968 143.903 27.776 143.007 28.352C142.111 28.912 141.111 29.192 140.007 29.192C139.079 29.192 138.255 29 137.535 28.616C136.831 28.232 136.279 27.736 135.879 27.128V35.384H131.775V15.608H135.879V17.504ZM141.735 22.28C141.735 21.256 141.447 20.456 140.871 19.88C140.311 19.288 139.615 18.992 138.783 18.992C137.967 18.992 137.271 19.288 136.695 19.88C136.135 20.472 135.855 21.28 135.855 22.304C135.855 23.328 136.135 24.136 136.695 24.728C137.271 25.32 137.967 25.616 138.783 25.616C139.599 25.616 140.295 25.32 140.871 24.728C141.447 24.12 141.735 23.304 141.735 22.28ZM151.688 17.504C152.088 16.88 152.64 16.376 153.344 15.992C154.048 15.608 154.872 15.416 155.816 15.416C156.92 15.416 157.92 15.696 158.816 16.256C159.712 16.816 160.416 17.616 160.928 18.656C161.456 19.696 161.72 20.904 161.72 22.28C161.72 23.656 161.456 24.872 160.928 25.928C160.416 26.968 159.712 27.776 158.816 28.352C157.92 28.912 156.92 29.192 155.816 29.192C154.888 29.192 154.064 29 153.344 28.616C152.64 28.232 152.088 27.736 151.688 27.128V35.384H147.584V15.608H151.688V17.504ZM157.544 22.28C157.544 21.256 157.256 20.456 156.68 19.88C156.12 19.288 155.424 18.992 154.592 18.992C153.776 18.992 153.08 19.288 152.504 19.88C151.944 20.472 151.664 21.28 151.664 22.304C151.664 23.328 151.944 24.136 152.504 24.728C153.08 25.32 153.776 25.616 154.592 25.616C155.408 25.616 156.104 25.32 156.68 24.728C157.256 24.12 157.544 23.304 157.544 22.28ZM165.457 14.216C164.737 14.216 164.145 14.008 163.681 13.592C163.233 13.16 163.009 12.632 163.009 12.008C163.009 11.368 163.233 10.84 163.681 10.424C164.145 9.992 164.737 9.776 165.457 9.776C166.161 9.776 166.737 9.992 167.185 10.424C167.649 10.84 167.881 11.368 167.881 12.008C167.881 12.632 167.649 13.16 167.185 13.592C166.737 14.008 166.161 14.216 165.457 14.216ZM167.497 15.608V29H163.393V15.608H167.497ZM178.175 29L174.095 23.384V29H169.991V11.24H174.095V21.056L178.151 15.608H183.215L177.647 22.328L183.263 29H178.175ZM189.795 29.192C188.627 29.192 187.587 28.992 186.675 28.592C185.763 28.192 185.043 27.648 184.515 26.96C183.987 26.256 183.691 25.472 183.627 24.608H187.683C187.731 25.072 187.947 25.448 188.331 25.736C188.715 26.024 189.187 26.168 189.747 26.168C190.259 26.168 190.651 26.072 190.923 25.88C191.211 25.672 191.355 25.408 191.355 25.088C191.355 24.704 191.155 24.424 190.755 24.248C190.355 24.056 189.707 23.848 188.811 23.624C187.851 23.4 187.051 23.168 186.411 22.928C185.771 22.672 185.219 22.28 184.755 21.752C184.291 21.208 184.059 20.48 184.059 19.568C184.059 18.8 184.267 18.104 184.683 17.48C185.115 16.84 185.739 16.336 186.555 15.968C187.387 15.6 188.371 15.416 189.507 15.416C191.187 15.416 192.507 15.832 193.467 16.664C194.443 17.496 195.003 18.6 195.147 19.976H191.355C191.291 19.512 191.083 19.144 190.731 18.872C190.395 18.6 189.947 18.464 189.387 18.464C188.907 18.464 188.539 18.56 188.283 18.752C188.027 18.928 187.899 19.176 187.899 19.496C187.899 19.88 188.099 20.168 188.499 20.36C188.915 20.552 189.555 20.744 190.419 20.936C191.411 21.192 192.219 21.448 192.843 21.704C193.467 21.944 194.011 22.344 194.475 22.904C194.955 23.448 195.203 24.184 195.219 25.112C195.219 25.896 194.995 26.6 194.547 27.224C194.115 27.832 193.483 28.312 192.651 28.664C191.835 29.016 190.883 29.192 189.795 29.192Z" fill="#303030"/>
<path d="M43 19C43 8.50659 51.5066 0 62 0V0C72.4934 0 81 8.50659 81 19V20C81 31.0457 72.0457 40 61 40H43V19Z" fill="#303030"/>
<path d="M0 23C0 11.9543 8.95431 3 20 3H38V24C38 34.4934 29.4934 43 19 43V43C8.50659 43 0 34.4934 0 24V23Z" fill="#303030"/>
<rect x="8" y="22" width="3" height="3" rx="1.5" fill="#CFCFCF"/>
<rect x="18" y="22" width="3" height="3" rx="1.5" fill="#CFCFCF"/>
<rect x="28" y="22" width="3" height="3" rx="1.5" fill="#CFCFCF"/>
<rect x="51" y="20" width="3" height="3" rx="1.5" fill="#CFCFCF"/>
<rect x="61" y="20" width="2" height="3" rx="1" fill="#CFCFCF"/>
<rect x="71" y="20" width="2" height="3" rx="1" fill="#CFCFCF"/>
</svg>
