<svg width="187" height="43" viewBox="0 0 187 43" fill="none" xmlns="http://www.w3.org/2000/svg">
<path d="M105.608 12.152V15.44H101.144V29H97.04V15.44H92.576V12.152H105.608ZM113.284 29.192C111.972 29.192 110.788 28.912 109.732 28.352C108.692 27.792 107.868 26.992 107.26 25.952C106.668 24.912 106.372 23.696 106.372 22.304C106.372 20.928 106.676 19.72 107.284 18.68C107.892 17.624 108.724 16.816 109.78 16.256C110.836 15.696 112.02 15.416 113.332 15.416C114.644 15.416 115.828 15.696 116.884 16.256C117.94 16.816 118.772 17.624 119.38 18.68C119.988 19.72 120.292 20.928 120.292 22.304C120.292 23.68 119.98 24.896 119.356 25.952C118.748 26.992 117.908 27.792 116.836 28.352C115.78 28.912 114.596 29.192 113.284 29.192ZM113.284 25.64C114.068 25.64 114.732 25.352 115.276 24.776C115.836 24.2 116.116 23.376 116.116 22.304C116.116 21.232 115.844 20.408 115.3 19.832C114.772 19.256 114.116 18.968 113.332 18.968C112.532 18.968 111.868 19.256 111.34 19.832C110.812 20.392 110.548 21.216 110.548 22.304C110.548 23.376 110.804 24.2 111.316 24.776C111.844 25.352 112.5 25.64 113.284 25.64ZM126.093 17.504C126.493 16.88 127.045 16.376 127.749 15.992C128.453 15.608 129.277 15.416 130.221 15.416C131.325 15.416 132.325 15.696 133.221 16.256C134.117 16.816 134.821 17.616 135.333 18.656C135.861 19.696 136.125 20.904 136.125 22.28C136.125 23.656 135.861 24.872 135.333 25.928C134.821 26.968 134.117 27.776 133.221 28.352C132.325 28.912 131.325 29.192 130.221 29.192C129.293 29.192 128.469 29 127.749 28.616C127.045 28.232 126.493 27.736 126.093 27.128V35.384H121.989V15.608H126.093V17.504ZM131.949 22.28C131.949 21.256 131.661 20.456 131.085 19.88C130.525 19.288 129.829 18.992 128.997 18.992C128.181 18.992 127.485 19.288 126.909 19.88C126.349 20.472 126.069 21.28 126.069 22.304C126.069 23.328 126.349 24.136 126.909 24.728C127.485 25.32 128.181 25.616 128.997 25.616C129.813 25.616 130.509 25.32 131.085 24.728C131.661 24.12 131.949 23.304 131.949 22.28ZM141.902 17.504C142.302 16.88 142.854 16.376 143.558 15.992C144.262 15.608 145.086 15.416 146.03 15.416C147.134 15.416 148.134 15.696 149.03 16.256C149.926 16.816 150.63 17.616 151.142 18.656C151.67 19.696 151.934 20.904 151.934 22.28C151.934 23.656 151.67 24.872 151.142 25.928C150.63 26.968 149.926 27.776 149.03 28.352C148.134 28.912 147.134 29.192 146.03 29.192C145.102 29.192 144.278 29 143.558 28.616C142.854 28.232 142.302 27.736 141.902 27.128V35.384H137.798V15.608H141.902V17.504ZM147.758 22.28C147.758 21.256 147.47 20.456 146.894 19.88C146.334 19.288 145.638 18.992 144.806 18.992C143.99 18.992 143.294 19.288 142.718 19.88C142.158 20.472 141.878 21.28 141.878 22.304C141.878 23.328 142.158 24.136 142.718 24.728C143.294 25.32 143.99 25.616 144.806 25.616C145.622 25.616 146.318 25.32 146.894 24.728C147.47 24.12 147.758 23.304 147.758 22.28ZM155.671 14.216C154.951 14.216 154.359 14.008 153.895 13.592C153.447 13.16 153.223 12.632 153.223 12.008C153.223 11.368 153.447 10.84 153.895 10.424C154.359 9.992 154.951 9.776 155.671 9.776C156.375 9.776 156.951 9.992 157.399 10.424C157.863 10.84 158.095 11.368 158.095 12.008C158.095 12.632 157.863 13.16 157.399 13.592C156.951 14.008 156.375 14.216 155.671 14.216ZM157.711 15.608V29H153.607V15.608H157.711ZM168.389 29L164.309 23.384V29H160.205V11.24H164.309V21.056L168.365 15.608H173.429L167.861 22.328L173.477 29H168.389ZM180.009 29.192C178.841 29.192 177.801 28.992 176.889 28.592C175.977 28.192 175.257 27.648 174.729 26.96C174.201 26.256 173.905 25.472 173.841 24.608H177.897C177.945 25.072 178.161 25.448 178.545 25.736C178.929 26.024 179.401 26.168 179.961 26.168C180.473 26.168 180.865 26.072 181.137 25.88C181.425 25.672 181.569 25.408 181.569 25.088C181.569 24.704 181.369 24.424 180.969 24.248C180.569 24.056 179.921 23.848 179.025 23.624C178.065 23.4 177.265 23.168 176.625 22.928C175.985 22.672 175.433 22.28 174.969 21.752C174.505 21.208 174.273 20.48 174.273 19.568C174.273 18.8 174.481 18.104 174.897 17.48C175.329 16.84 175.953 16.336 176.769 15.968C177.601 15.6 178.585 15.416 179.721 15.416C181.401 15.416 182.721 15.832 183.681 16.664C184.657 17.496 185.217 18.6 185.361 19.976H181.569C181.505 19.512 181.297 19.144 180.945 18.872C180.609 18.6 180.161 18.464 179.601 18.464C179.121 18.464 178.753 18.56 178.497 18.752C178.241 18.928 178.113 19.176 178.113 19.496C178.113 19.88 178.313 20.168 178.713 20.36C179.129 20.552 179.769 20.744 180.633 20.936C181.625 21.192 182.433 21.448 183.057 21.704C183.681 21.944 184.225 22.344 184.689 22.904C185.169 23.448 185.417 24.184 185.433 25.112C185.433 25.896 185.209 26.6 184.761 27.224C184.329 27.832 183.697 28.312 182.865 28.664C182.049 29.016 181.097 29.192 180.009 29.192Z" fill="#CFCFCF"/>
<path d="M43 19C43 8.50659 51.5066 0 62 0V0C72.4934 0 81 8.50659 81 19V20C81 31.0457 72.0457 40 61 40H43V19Z" fill="#CFCFCF"/>
<path d="M0 23C0 11.9543 8.95431 3 20 3H38V24C38 34.4934 29.4934 43 19 43V43C8.50659 43 0 34.4934 0 24V23Z" fill="#CFCFCF"/>
<rect x="8" y="22" width="3" height="3" rx="1.5" fill="#222222"/>
<rect x="18" y="22" width="3" height="3" rx="1.5" fill="#222222"/>
<rect x="28" y="22" width="3" height="3" rx="1.5" fill="#222222"/>
<rect x="51" y="20" width="3" height="3" rx="1.5" fill="#222222"/>
<rect x="61" y="20" width="2" height="3" rx="1" fill="#222222"/>
<rect x="71" y="20" width="2" height="3" rx="1" fill="#222222"/>
</svg>
